<?xml version="1.0" encoding="utf-8"?>
<!-- Generated by IcoMoon.io -->
<!DOCTYPE svg PUBLIC "-//W3C//DTD SVG 1.1//EN" "http://www.w3.org/Graphics/SVG/1.1/DTD/svg11.dtd">
<svg version="1.1" xmlns="http://www.w3.org/2000/svg" xmlns:xlink="http://www.w3.org/1999/xlink" width="512" height="512" viewBox="0 0 512 512">
<g>
</g>
	<path d="M369.776 234.517c8.182 16.343 13.937 31.764 17.326 45.701 5.274 21.637 2.386 35.625-8.683 40.919-2.396 1.444-10.588 1.444-23.070 0-44.288-5.294-111.678 23.552-150.672 43.786-21.627 10.578 74.107 92.877 75.561 94.822 0.983 2.898-1.454 5.765-8.642 9.615-33.229 16.855-50.053-1.935-69.315-26.942-24.064-29.849-44.769-40.458-61.614-31.785-0.502 0-0.973 0.461-2.417 1.444-0.963 0.962-1.925 1.444-2.396 1.925-18.78 9.615-37.038-2.898-54.835-37.519-10.117-20.234-7.71-39.465 7.198-58.245 46.203-50.063 98.171-116.941 111.636-185.785-6.246-22.63-3.358-36.557 8.673-42.823 14.951-7.721 37.089 1.424 66.908 26.471 19.733 16.835 38.492 36.086 55.347 57.743 15.421 19.282 28.406 39.486 38.994 60.672v0zM119.040 419.308c-16.855-3.84-30.331-15.401-40.427-35.144-8.202-16.394-10.608-29.819-7.701-41.38-14.438 20.204-21.648 30.32-22.129 30.802-4.823 11.059-3.861 23.101 2.857 36.577 6.748 13.456 16.855 20.685 30.32 20.204 8.192 0 20.706-3.861 37.079-11.059v0zM338.022 313.416c-23.582-13.466-46.695-33.198-69.796-59.678-21.657-24.525-38.983-49.541-51.958-76.022l-10.096-26.962c-3.379 18.288-11.1 37.048-22.651 57.252-11.070 17.346-21.637 35.154-32.236 52.49-13.005 20.695-15.401 38.492-7.69 53.904 6.727 13.005 14.93 23.091 24.546 30.29 12.022 9.165 24.535 11.571 37.048 7.721 0.983-0.481 9.155-4.342 25.026-11.561 37.55-17.316 73.605-26.45 107.806-27.433v0zM438.61 101.181c-15.411-25.487-35.164-43.766-58.716-54.374-24.074-11.561-50.555-13.476-78.909-6.748 25.488-1.925 51.456 7.7 78.418 28.395 21.647 17.346 40.438 39.004 56.31 64.973 16.855 27.935 26.45 55.839 29.849 84.695 3.358-42.803-5.776-81.787-26.952-116.941v0zM409.252 126.71c-12.063-20.214-27.443-34.663-46.695-43.305-19.262-9.154-40.438-11.070-63.027-5.314 20.204-1.433 41.38 6.267 62.546 22.62 17.316 13.947 32.707 31.294 45.23 51.989 13.466 22.129 21.176 44.759 23.572 67.369 2.887-34.171-4.301-64.973-21.627-93.358v0zM383.724 150.282c-9.605-15.872-22.128-27.433-37.519-34.652-15.401-7.209-32.256-8.633-50.545-4.322 16.353-0.963 33.209 5.284 50.063 18.78 14.438 10.558 26.44 24.535 36.086 40.909 11.079 17.797 17.316 36.076 19.241 54.375 1.935-27.453-3.358-52.459-17.326-75.090z" fill="#000000" />
</svg>
